<svg xmlns="http://www.w3.org/2000/svg" width="16" height="16" viewBox="0 0 16 16">
  <path d="M13.57 13.75H2.429c-.632 0-1.19-.416-1.37-1.022C1.02 12.596 1 12.459 1 12.32V3.678c.001-.788.64-1.428 1.429-1.428h11.142c.762 0 1.39.596 1.429 1.357v8.715c0 .789-.64 1.429-1.429 1.429h-.001zM2.859 11.891h10.282V4.109H2.859v7.782zm4.751-.766V4.874c0-.206.167-.374.374-.374s.374.167.375.374v6.251c-.001.207-.168.374-.375.374s-.374-.167-.374-.374zm2.028-.113c-.43 0-.778-.348-.778-.778 0-.43.348-.778.778-.778h2.222c.43 0 .778.348.778.778 0 .43-.348.778-.778.778H9.638zm0-2.222c-.43 0-.778-.348-.778-.778 0-.43.348-.778.778-.778h2.222c.429.001.777.349.778.778 0 .43-.348.778-.778.778H9.638zm0-2.221c-.43 0-.778-.348-.778-.778 0-.43.348-.778.778-.778h2.222c.43 0 .778.348.778.778-.001.429-.349.777-.778.778H9.638z" fill="white"/>
</svg>